<svg xmlns="http://www.w3.org/2000/svg" viewBox="0 0 612.03 270.81"><defs><style>.cls-1{fill:#772c2a;}</style></defs><title>Asset 4</title><g id="Layer_2" data-name="Layer 2"><g id="Layer_1-2" data-name="Layer 1"><path class="cls-1" d="M248.81,44.75,209.74,91C192.29,69.79,166.5,56.51,143,56.51c-42.1,0-74,33.38-74,77,0,44.37,31.86,78.13,74,78.13,22.38,0,48.17-12.14,66.75-31.1l39.45,41.72c-28.45,29.2-70.55,48.55-109.62,48.55C59.55,270.81,0,212,0,134.26,0,57.65,61.07,0,141.85,0,181.3,0,222.26,17.45,248.81,44.75Z"/><path class="cls-1" d="M545,134.65c0,77.37-61.45,136.16-143.75,136.16-81.92,0-143.36-58.41-143.36-136.16C257.92,57.27,319.36,0,401.28,0,483.58,0,545,57.65,545,134.65ZM326.94,135c0,44.76,34.52,79.27,75.1,79.27,41,0,73.58-34.51,73.58-79.27S443,56.51,402,56.51,326.94,90.27,326.94,135Z"/><circle class="cls-1" cx="584.03" cy="219.63" r="28"/></g></g></svg>