<svg xmlns="http://www.w3.org/2000/svg" xmlns:xlink="http://www.w3.org/1999/xlink" version="1.1" id="Capa_1" x="0px" y="0px" viewBox="0 0 512 512" style="enable-background:new 0 0 512 512;" xml:space="preserve">
<path style="fill:#89C6F5;" d="M512,256c0,63.237-22.936,121.135-60.938,165.794C404.104,476.985,334.137,512,256,512  C114.615,512,0,397.385,0,256c0-9.32,0.491-18.536,1.473-27.606c1.735-16.196,4.984-31.943,9.603-47.094  c2.069-6.823,4.43-13.531,7.053-20.104c9.55-23.918,22.591-46.07,38.515-65.797c5.831-7.241,12.058-14.158,18.651-20.72  C121.595,28.526,185.459,0,256,0s134.416,28.526,180.715,74.679c6.583,6.562,12.81,13.479,18.641,20.72  c15.924,19.728,28.965,41.869,38.504,65.797c2.623,6.572,4.984,13.281,7.064,20.114c0.303,1.003,0.606,2.006,0.899,3.02  c4.138,14.211,7.084,28.944,8.704,44.063C511.498,237.464,512,246.669,512,256z"/>
<path style="fill:#25A272;" d="M512,256H0c0-33.489,6.426-65.484,18.129-94.804h475.732c3.009,7.544,5.674,15.256,7.962,23.134  C508.447,207.067,512,231.121,512,256z"/>
<path style="fill:#89C6F5;" d="M512,256c0,34.503-6.823,67.417-19.205,97.458C454.457,446.506,362.883,512,256,512  S57.543,446.506,19.205,353.458C6.823,323.417,0,290.503,0,256H512z"/>
<path style="fill:#37AF57;" d="M493.861,161.196c-13.04-32.705-32.622-62.077-57.145-86.518c-1.881-0.136-3.783-0.209-5.695-0.209  c-23.416,0-44.356,10.543-58.337,27.146c-0.002,0.003-0.004,0.005-0.006,0.008C358.685,85.025,337.75,74.47,314.341,74.47  c-23.411,0-44.348,10.557-58.34,27.158c-13.992-16.601-34.929-27.158-58.34-27.158c-23.407,0-44.339,10.552-58.331,27.149  c-0.001-0.001-0.001-0.001-0.002-0.002C125.336,85.013,104.396,74.47,80.98,74.47c-1.912,0-3.803,0.073-5.684,0.209  c-24.524,24.43-44.116,53.812-57.166,86.518c-2.623,6.572-4.984,13.281-7.053,20.104c11.776,26.917,38.64,45.725,69.904,45.725  c23.416,0,44.356-10.543,58.347-27.146c0.001-0.001,0.001-0.001,0.002-0.002c13.992,16.596,34.925,27.149,58.331,27.149  c23.411,0,44.348-10.557,58.34-27.158c13.992,16.601,34.929,27.158,58.34,27.158c23.41,0,44.344-10.556,58.337-27.155  c0.002,0.003,0.004,0.005,0.006,0.008c13.981,16.603,34.921,27.146,58.337,27.146c31.263,0,58.128-18.798,69.904-45.714  C498.845,174.477,496.483,167.769,493.861,161.196z"/>
<path style="fill:#25A272;" d="M510.527,228.394c-15.214,12.142-35.338,19.529-57.407,19.529c-26.373,0-49.957-10.543-65.703-27.146  c0,0,0-0.01-0.01-0.01c-15.757,16.603-39.33,27.157-65.703,27.157c-26.363,0-49.946-10.553-65.703-27.157  c-15.757,16.603-39.34,27.157-65.703,27.157c-13.187,0-25.663-2.633-36.833-7.356c-11.16-4.702-20.992-11.494-28.871-19.79  c-15.757,16.603-39.34,27.146-65.714,27.146c-22.068,0-42.193-7.387-57.407-19.529c1.735-16.196,4.984-31.943,9.603-47.094  c2.069-6.823,4.43-13.531,7.053-20.104c9.55-23.918,22.591-46.07,38.515-65.797c0.742-0.021,1.484-0.031,2.236-0.031  c13.187,0,25.673,2.633,36.833,7.346c11.17,4.712,21.002,11.504,28.881,19.801c15.757-16.593,39.34-27.146,65.703-27.146  s49.946,10.553,65.703,27.157c15.757-16.603,39.34-27.157,65.703-27.157c26.373,0,49.946,10.553,65.703,27.157  c0.01,0,0.01-0.01,0.01-0.01c15.747-16.603,39.33-27.146,65.703-27.146c0.752,0,1.494,0.01,2.236,0.031  c15.924,19.728,28.965,41.869,38.504,65.797c2.623,6.572,4.984,13.281,7.064,20.114c0.303,1.003,0.606,2.006,0.899,3.02  C505.96,198.541,508.907,213.274,510.527,228.394z"/>
<path style="fill:#B8DDFF;" d="M492.795,353.458C454.457,446.506,362.883,512,256,512c-49.81,0-96.298-14.221-135.617-38.849  c-1.567-0.961-3.124-1.964-4.66-2.978c-4.368-2.863-8.641-5.862-12.821-8.986c-8.119-6.06-15.872-12.591-23.197-19.571  c-6.437-6.102-12.549-12.549-18.317-19.299c-17.481-20.428-31.786-43.635-42.183-68.859H492.795z"/>
<path style="fill:#B07364;" d="M266.752,160.768c0,2.968-1.567,5.893-4.504,7.408c-25.349,13.113-90.436,57.814-133.151,185.281  c-10.334,30.824-19.362,66.497-26.196,107.729c-15.245-11.379-29.174-24.43-41.514-38.87c4.838-18.442,12.152-42.465,22.779-68.859  c28.275-70.28,79.987-157.32,170.632-200.234c3.197-1.515,7.001-0.857,9.498,1.641c0.449,0.449,0.836,0.94,1.16,1.452  C266.334,157.686,266.752,159.232,266.752,160.768z"/>
<path style="fill:#995248;" d="M265.456,156.317c-24.733,8.025-93.592,40.532-146.338,162.659  c-5.12,11.86-9.728,23.364-13.855,34.482c-12.184,32.789-20.271,62.318-25.558,88.158c-6.437-6.102-12.549-12.549-18.317-19.299  c4.838-18.442,12.152-42.465,22.779-68.859c28.275-70.28,79.987-157.32,170.632-200.234c3.197-1.515,7.001-0.857,9.498,1.641  C264.746,155.314,265.132,155.805,265.456,156.317z"/>
<path style="fill:#EDE8E9;" d="M420.362,209.847l-4.284,3.009c-0.115-0.178-12.842-17.972-37.157-30.135  c-32.538-16.29-69.308-15.339-109.307,2.8c-46.456,21.076-85.838,95.754-113.152,167.936c-17.272,45.61-29.717,90.227-36.08,119.693  c-1.567-0.961-3.124-1.964-4.66-2.978c6.259-28.118,18.328-71.607,35.244-116.715c3.417-9.091,7.022-18.254,10.825-27.366  c22.852-54.794,59.737-124.5,105.671-145.335c51.816-23.5,90.603-14.378,114.019-2.591  C406.894,190.945,419.819,209.084,420.362,209.847z"/>
<path style="fill:#CE508C;" d="M423.445,211.352v81.502c0,2.884-2.341,5.224-5.224,5.224c-2.884,0-5.224-2.341-5.224-5.224v-81.502  c0-2.884,2.341-5.224,5.224-5.224C421.104,206.127,423.445,208.468,423.445,211.352z"/>
<rect x="412.996" y="234.339" style="fill:#F1ECED;" width="10.449" height="29.257"/>
<path style="fill:#CE508C;" d="M448.784,308.266h-61.127c0-16.875,13.688-30.563,30.563-30.563S448.784,291.391,448.784,308.266z"/>
<path style="fill:#B02D71;" d="M418.22,277.703c-5.486,0-9.927,13.688-9.927,30.563h-20.637  C387.657,291.391,401.345,277.703,418.22,277.703z"/>
<g>
	<path style="fill:#B8DDFF;" d="M306.155,295.988h-40.751c-3.463,0-6.269-2.807-6.269-6.269l0,0c0-3.463,2.807-6.269,6.269-6.269   h40.751c3.463,0,6.269,2.807,6.269,6.269l0,0C312.424,293.182,309.618,295.988,306.155,295.988z"/>
	<path style="fill:#B8DDFF;" d="M351.086,326.29h-40.751c-3.463,0-6.269-2.807-6.269-6.269l0,0c0-3.463,2.807-6.269,6.269-6.269   h40.751c3.463,0,6.269,2.807,6.269,6.269l0,0C357.355,323.484,354.548,326.29,351.086,326.29z"/>
</g>
<g>
	<path style="fill:#89C6F5;" d="M282.645,409.882h-40.751c-3.463,0-6.269-2.807-6.269-6.269l0,0c0-3.463,2.807-6.269,6.269-6.269   h40.751c3.463,0,6.269,2.807,6.269,6.269l0,0C288.914,407.076,286.108,409.882,282.645,409.882z"/>
	<path style="fill:#89C6F5;" d="M406.988,442.274h-40.751c-3.463,0-6.269-2.807-6.269-6.269l0,0c0-3.463,2.807-6.269,6.269-6.269   h40.751c3.463,0,6.269,2.807,6.269,6.269l0,0C413.257,439.467,410.451,442.274,406.988,442.274z"/>
	<path style="fill:#89C6F5;" d="M235.976,481.001h-40.751c-3.463,0-6.269-2.807-6.269-6.269l0,0c0-3.463,2.807-6.269,6.269-6.269   h40.751c3.463,0,6.269,2.807,6.269,6.269l0,0C242.245,478.193,239.438,481.001,235.976,481.001z"/>
</g>
<path style="fill:#B8DDFF;" d="M55.902,296.511H15.151c-3.463,0-6.269-2.807-6.269-6.269l0,0c0-3.463,2.807-6.269,6.269-6.269  h40.751c3.463,0,6.269,2.807,6.269,6.269l0,0C62.171,293.704,59.365,296.511,55.902,296.511z"/>
<g>
	<path style="fill:#F2D655;" d="M254.954,205.606c-1.157,0-2.215-0.774-2.524-1.946c-7.01-26.537-21.057-39.897-21.198-40.03   c-1.052-0.983-1.111-2.636-0.13-3.691c0.982-1.054,2.632-1.115,3.687-0.135c0.62,0.576,15.269,14.422,22.691,42.52   c0.369,1.395-0.463,2.824-1.858,3.193C255.399,205.577,255.173,205.606,254.954,205.606z"/>
	<path style="fill:#F2D655;" d="M179.727,304.871c-1.407,0-2.78-0.711-3.569-1.998c-14.573-23.803-47.408-32.432-47.738-32.516   c-2.235-0.572-3.586-2.846-3.017-5.081c0.569-2.235,2.837-3.589,5.077-3.02c1.481,0.375,36.434,9.51,52.807,36.253   c1.205,1.969,0.586,4.541-1.382,5.747C181.224,304.672,180.471,304.871,179.727,304.871z"/>
	<path style="fill:#F2D655;" d="M136.887,421.899c-1.822,0-3.614-0.864-4.73-2.476c-17.098-24.696-59.578-29.17-60.005-29.213   c-3.159-0.312-5.465-3.127-5.152-6.285c0.312-3.159,3.128-5.47,6.285-5.152c0.489,0.048,12.133,1.239,26.264,5.904   c19.381,6.398,33.532,15.887,42.058,28.204c1.807,2.61,1.156,6.19-1.453,7.997C139.155,421.567,138.014,421.899,136.887,421.899z"/>
</g>
<g>
</g>
<g>
</g>
<g>
</g>
<g>
</g>
<g>
</g>
<g>
</g>
<g>
</g>
<g>
</g>
<g>
</g>
<g>
</g>
<g>
</g>
<g>
</g>
<g>
</g>
<g>
</g>
<g>
</g>
</svg>
